<svg xmlns="http://www.w3.org/2000/svg" width="512" height="512" viewBox="0 0 512 512">
      <rect x="0" y="0" width="512" height="512" rx="113" ry="113" fill="#0E1A30"/>
      <defs>
        <radialGradient id="hl" cx="50%" cy="0%" r="65%">
          <stop offset="0%"  stop-color="#3a4870" stop-opacity="0.5"/>
          <stop offset="100%" stop-color="#3a4870" stop-opacity="0"/>
        </radialGradient>
      </defs>
      <rect x="0" y="0" width="512" height="512" rx="113" ry="113" fill="url(#hl)"/>
      <svg x="97" y="97" width="317" height="317" viewBox="0 0 64 64">
        <g transform="rotate(15 32 25)">
          <path d="M32 11 A14 14 0 1 0 32 39 A9 14 0 1 1 32 11 Z" fill="#D4A247"/>
        </g>
        <path d="M14 56 C 22 50, 26 50, 32 56 C 38 62, 42 62, 50 56" stroke="#D4A247"  stroke-width="3.2" stroke-linecap="round" fill="none"/>
        <path d="M10 48 C 18 42, 22 42, 30 48 C 38 54, 42 54, 54 48"    stroke="#F5ECD6" stroke-width="3.2" stroke-linecap="round" fill="none"/>
      </svg>
    </svg>